HIERARCHY
ROOT Hips
{
	OFFSET 0.000000 0.000000 0.000000
	CHANNELS 6 Xposition Yposition Zposition Zrotation Yrotation Xrotation 
	JOINT LHipJoint
	{
		OFFSET 0.000000 0.000000 0.000000
		CHANNELS 3 Zrotation Yrotation Xrotation
		JOINT LeftUpLeg
		{
			OFFSET 1.363060 -1.794630 0.839290
			CHANNELS 3 Zrotation Yrotation Xrotation
			JOINT LeftLeg
			{
				OFFSET 2.448110 -6.726130 0.000000
				CHANNELS 3 Zrotation Yrotation Xrotation
				JOINT LeftFoot
				{
					OFFSET 2.562200 -7.039590 0.000000
					CHANNELS 3 Zrotation Yrotation Xrotation
					JOINT LeftToeBase
					{
						OFFSET 0.157640 -0.433110 2.322550
						CHANNELS 3 Zrotation Yrotation Xrotation
						End Site
						{
							OFFSET 0.000000 0.000000 0.000000
						}
					}
				}
			}
		}
	}
	JOINT RHipJoint
	{
		OFFSET 0.000000 0.000000 0.000000
		CHANNELS 3 Zrotation Yrotation Xrotation
		JOINT RightUpLeg
		{
			OFFSET -1.305520 -1.794630 0.839290
			CHANNELS 3 Zrotation Yrotation Xrotation
			JOINT RightLeg
			{
				OFFSET -2.542530 -6.985550 0.000000
				CHANNELS 3 Zrotation Yrotation Xrotation
				JOINT RightFoot
				{
					OFFSET -2.568260 -7.056230 0.000000
					CHANNELS 3 Zrotation Yrotation Xrotation
					JOINT RightToeBase
					{
						OFFSET -0.164730 -0.452590 2.363150
						CHANNELS 3 Zrotation Yrotation Xrotation
						End Site
						{
							OFFSET 0.000000 0.000000 0.000000
						}
					}
				}
			}
		}
	}
}
MOTION
Frames: 19
Frame Time: 0.008333
2.838434 17.580416 -0.424540 137.972958 -40.777044 -136.758104 -0.961057 -3.775322 4.234616 24.943115 6.098940 -74.075175 -1.993665 -0.732561 -5.095719 0.183752 -5.851943 39.288981 -4.247400 -0.000000 -57.489500 19.274605 4.602989 0.744436 -25.809187 2.647830 -15.740612 -2.180497 -1.673522 14.241283 0.544547 6.160473 -2.020458 0.708201 0.000000 -75.829800
2.843488 17.587872 -0.427130 137.976956 -40.648280 -136.612646 -0.988276 -3.764103 4.172988 23.511153 6.013931 -74.002464 -2.214549 -0.734474 -4.929655 0.082907 -6.809538 39.068770 -4.896800 0.000000 -59.235700 19.277671 4.578408 0.844679 -25.876759 2.297964 -15.994034 -2.169316 -1.621476 13.854257 0.611261 6.563829 -1.871936 0.770100 -0.000000 -76.392100
2.845887 17.593021 -0.427944 137.923302 -40.625021 -136.402257 -1.040446 -3.734277 4.130257 22.285632 5.719278 -74.065538 -2.377587 -0.694726 -4.178304 0.017701 -7.593945 39.035136 -5.445300 0.000000 -61.009300 19.272694 4.564203 0.924575 -25.915632 1.898202 -16.243182 -2.152428 -1.572986 13.534789 0.670612 6.924746 -1.769942 0.823500 -0.000000 -76.849500
2.845111 17.596027 -0.426608 137.840878 -40.690673 -136.172770 -1.119056 -3.690201 4.099830 21.330323 5.225891 -74.155331 -2.473556 -0.616846 -2.967942 -0.009693 -8.182810 39.197156 -5.883600 -0.000001 -62.494599 19.253538 4.555510 0.980318 -25.910818 1.483061 -16.456504 -2.127885 -1.528836 13.278791 0.721950 7.238800 -1.722322 0.865800 -0.000000 -77.188799
2.841213 17.597128 -0.423269 137.743302 -40.827829 -135.954982 -1.220866 -3.636393 4.077829 20.687341 4.539610 -74.167948 -2.496635 -0.512117 -1.458507 0.001767 -8.562382 39.555422 -6.204600 -0.000000 -63.441700 19.218405 4.548889 1.009050 -25.857598 1.073276 -16.605148 -2.095852 -1.488988 13.066670 0.765203 7.505419 -1.724265 0.896300 0.000000 -77.426100
2.834395 17.596763 -0.418339 137.636053 -41.022785 -135.759318 -1.340441 -3.575525 4.066820 20.387933 3.654743 -74.029405 -2.444865 -0.396615 0.191929 0.051447 -8.707453 40.078276 -6.384700 -0.000001 -63.705201 19.168403 4.543576 1.009022 -25.760743 0.672101 -16.676030 -2.056974 -1.453338 12.881316 0.801449 7.731691 -1.768895 0.916101 -0.000000 -77.581000
2.825081 17.595432 -0.412405 137.515031 -41.264284 -135.578989 -1.470447 -3.507927 4.072680 20.434440 2.559092 -73.703537 -2.323941 -0.287064 1.846060 0.135633 -8.593899 40.704938 -6.394300 0.000000 -63.268400 19.108117 4.540970 0.980584 -25.634242 0.267361 -16.671134 -2.012656 -1.421722 12.707158 0.832723 7.930944 -1.845034 0.928000 -0.000000 -77.681400
2.814064 17.593508 -0.406197 137.371688 -41.539648 -135.402851 -1.603648 -3.434055 4.097295 20.746156 1.267581 -73.224215 -2.153646 -0.192966 3.441518 0.242805 -8.268206 41.342094 -6.249600 0.000000 -62.241599 19.042185 4.541867 0.927334 -25.490476 -0.154626 -16.601478 -1.964486 -1.393169 12.529791 0.861296 8.117727 -1.939485 0.935300 0.000000 -77.756800
2.801854 17.591525 -0.400261 137.208830 -41.836328 -135.225258 -1.735302 -3.354536 4.138805 21.199077 -0.179639 -72.655807 -1.959380 -0.116618 4.965394 0.358850 -7.800636 41.897025 -5.987100 -0.000000 -60.848799 18.973899 4.545710 0.855744 -25.339178 -0.604838 -16.486015 -1.913114 -1.366348 12.339719 0.889834 8.308995 -2.039932 0.941500 0.000000 -77.835500
2.789046 17.589908 -0.395217 137.030855 -42.137291 -135.041081 -1.862240 -3.269649 4.193822 21.675975 -1.733470 -72.049545 -1.763443 -0.057056 6.411108 0.473189 -7.232796 42.312613 -5.629600 0.000000 -59.411100 18.907481 4.551604 0.774308 -25.190709 -1.091079 -16.348418 -1.859421 -1.340084 12.130785 0.921106 8.522625 -2.133850 0.950300 0.000001 -77.944200
2.776081 17.589014 -0.391157 136.856630 -42.424630 -134.865034 -1.985564 -3.183209 4.252432 22.025027 -3.305547 -71.468666 -1.589097 -0.006610 7.831543 0.572811 -6.652942 42.524324 -5.238000 0.000001 -58.129100 18.842258 4.556314 0.692236 -25.042613 -1.606574 -16.210763 -1.802910 -1.312689 11.901870 0.957265 8.772948 -2.212131 0.964200 0.000000 -78.100800
2.763207 17.589073 -0.388329 136.703370 -42.679101 -134.706389 -2.106789 -3.096478 4.308726 22.166957 -4.834535 -70.916209 -1.446908 0.038338 9.225522 0.654568 -6.064719 42.533592 -4.818200 -0.000000 -57.255200 18.780015 4.557604 0.618545 -24.898120 -2.144653 -16.096057 -1.743701 -1.283558 11.656894 1.000266 9.073821 -2.267493 0.985800 0.000000 -78.318500
2.750357 17.590261 -0.386402 136.600523 -42.885378 -134.589698 -2.230868 -3.012460 4.353614 22.017962 -6.242200 -70.397634 -1.345467 0.084589 10.629171 0.713555 -5.511960 42.327501 -4.404700 0.000000 -56.809100 18.717381 4.551309 0.561233 -24.747356 -2.685778 -16.022807 -1.680561 -1.251783 11.403230 1.050912 9.432211 -2.297934 1.015800 0.000000 -78.599401
2.737588 17.592457 -0.385478 136.562302 -43.029767 -134.525579 -2.360359 -2.929961 4.383617 21.573928 -7.496861 -69.871830 -1.282589 0.133104 12.015394 0.753575 -4.965218 41.948595 -3.982100 -0.000001 -56.861500 18.654996 4.535113 0.526997 -24.589889 -3.212170 -16.006190 -1.614055 -1.217818 11.151335 1.109027 9.849039 -2.303488 1.054600 0.000000 -78.933200
2.724286 17.595699 -0.384706 136.619853 -43.108449 -134.542826 -2.502451 -2.850287 4.392164 20.818738 -8.546578 -69.326237 -1.256489 0.189411 13.416036 0.773325 -4.470353 41.397720 -3.587100 0.000001 -57.231499 18.584324 4.503925 0.518587 -24.403560 -3.697908 -16.050821 -1.542080 -1.181091 10.909371 1.173360 10.318852 -2.285776 1.101100 -0.000000 -79.314399
2.710143 17.599749 -0.383936 136.778325 -43.122188 -134.643482 -2.658440 -2.769843 4.380743 19.816149 -9.399366 -68.717532 -1.257633 0.251590 14.786272 0.779294 -3.997525 40.730794 -3.203400 -0.000000 -57.834100 18.504252 4.456140 0.538022 -24.185154 -4.123938 -16.159846 -1.465473 -1.142533 10.687589 1.241593 10.827534 -2.251286 1.153200 0.000000 -79.721000
2.694728 17.604348 -0.382900 137.037790 -43.078145 -134.826331 -2.829447 -2.685923 4.352315 18.636179 -10.071638 -68.023169 -1.276801 0.318064 16.097968 0.776097 -3.545526 39.991733 -2.834700 -0.000000 -58.522700 18.411601 4.390459 0.583921 -23.927049 -4.475342 -16.328000 -1.384774 -1.102720 10.491327 1.310947 11.356868 -2.204753 1.208400 -0.000000 -80.139800
2.677669 17.609220 -0.381548 137.390458 -42.989739 -135.080140 -3.014067 -2.595475 4.312752 17.360177 -10.597500 -67.229500 -1.305340 0.385629 17.313443 0.767800 -3.113142 39.222742 -2.483700 -0.000000 -59.105400 18.305019 4.306743 0.654347 -23.627574 -4.735076 -16.546350 -1.301683 -1.062382 10.325895 1.377540 11.877385 -2.157431 1.262100 -0.000000 -80.524400
2.658514 17.614126 -0.379693 137.817498 -42.875321 -135.387417 -3.210468 -2.497305 4.269460 16.060521 -11.021013 -66.340179 -1.335847 0.451335 18.409301 0.757562 -2.710807 38.467723 -2.160700 0.000000 -59.499800 18.183103 4.206849 0.743108 -23.286173 -4.906556 -16.799771 -1.217113 -1.021932 10.188569 1.439069 12.370422 -2.111840 1.311900 -0.000000 -80.881900
